<mxfile host="app.diagrams.net" modified="2023-05-16T12:12:57.450Z" agent="Mozilla/5.0 (Windows NT 10.0; Win64; x64) AppleWebKit/537.36 (KHTML, like Gecko) Chrome/110.0.0.0 YaBrowser/23.3.3.719 Yowser/2.5 Safari/537.36" etag="4_qmlZG1EQTMnTzN6iQQ" version="21.1.4" type="device" pages="2">
  <diagram id="C5RBs43oDa-KdzZeNtuy" name="ClassDiagram">
    <mxGraphModel dx="1670" dy="962" grid="1" gridSize="10" guides="1" tooltips="1" connect="1" arrows="1" fold="1" page="1" pageScale="1" pageWidth="1654" pageHeight="1169" math="0" shadow="0">
      <root>
        <mxCell id="WIyWlLk6GJQsqaUBKTNV-0" />
        <mxCell id="WIyWlLk6GJQsqaUBKTNV-1" parent="WIyWlLk6GJQsqaUBKTNV-0" />
        <mxCell id="zkfFHV4jXpPFQw0GAbJ--0" value="IVertex" style="swimlane;fontStyle=2;align=center;verticalAlign=top;childLayout=stackLayout;horizontal=1;startSize=26;horizontalStack=0;resizeParent=1;resizeLast=0;collapsible=1;marginBottom=0;rounded=0;shadow=0;strokeWidth=1;" parent="WIyWlLk6GJQsqaUBKTNV-1" vertex="1">
          <mxGeometry x="200" y="15" width="310" height="225" as="geometry">
            <mxRectangle x="230" y="140" width="160" height="26" as="alternateBounds" />
          </mxGeometry>
        </mxCell>
        <mxCell id="RTz35jMpL1Sgpst_wqUK-0" value="size_t id_" style="text;align=center;verticalAlign=top;spacingLeft=4;spacingRight=4;overflow=hidden;rotatable=0;points=[[0,0.5],[1,0.5]];portConstraint=eastwest;" parent="zkfFHV4jXpPFQw0GAbJ--0" vertex="1">
          <mxGeometry y="26" width="310" height="26" as="geometry" />
        </mxCell>
        <mxCell id="RTz35jMpL1Sgpst_wqUK-1" value="Â vector&lt;shared_ptr&lt;IEdge&gt;&gt; edges_;" style="text;align=center;verticalAlign=top;spacingLeft=4;spacingRight=4;overflow=hidden;rotatable=0;points=[[0,0.5],[1,0.5]];portConstraint=eastwest;" parent="zkfFHV4jXpPFQw0GAbJ--0" vertex="1">
          <mxGeometry y="52" width="310" height="26" as="geometry" />
        </mxCell>
        <mxCell id="zkfFHV4jXpPFQw0GAbJ--4" value="" style="line;html=1;strokeWidth=1;align=center;verticalAlign=middle;spacingTop=-1;spacingLeft=3;spacingRight=3;rotatable=0;labelPosition=right;points=[];portConstraint=eastwest;" parent="zkfFHV4jXpPFQw0GAbJ--0" vertex="1">
          <mxGeometry y="78" width="310" height="8" as="geometry" />
        </mxCell>
        <mxCell id="RTz35jMpL1Sgpst_wqUK-2" value="vector&lt;shared_ptr&lt;IEdge&gt;&gt;&amp; GetEdges()" style="text;align=center;verticalAlign=top;spacingLeft=4;spacingRight=4;overflow=hidden;rotatable=0;points=[[0,0.5],[1,0.5]];portConstraint=eastwest;" parent="zkfFHV4jXpPFQw0GAbJ--0" vertex="1">
          <mxGeometry y="86" width="310" height="26" as="geometry" />
        </mxCell>
        <mxCell id="RTz35jMpL1Sgpst_wqUK-3" value="IEdge&amp; AddNeighbor(const shared_ptr&lt;IEdge&gt;&amp; edge)" style="text;align=center;verticalAlign=top;spacingLeft=4;spacingRight=4;overflow=hidden;rotatable=0;points=[[0,0.5],[1,0.5]];portConstraint=eastwest;" parent="zkfFHV4jXpPFQw0GAbJ--0" vertex="1">
          <mxGeometry y="112" width="310" height="26" as="geometry" />
        </mxCell>
        <mxCell id="RTz35jMpL1Sgpst_wqUK-4" value="void RemoveNeighbor(const IVertex&amp; vertex)" style="text;align=center;verticalAlign=top;spacingLeft=4;spacingRight=4;overflow=hidden;rotatable=0;points=[[0,0.5],[1,0.5]];portConstraint=eastwest;" parent="zkfFHV4jXpPFQw0GAbJ--0" vertex="1">
          <mxGeometry y="138" width="310" height="26" as="geometry" />
        </mxCell>
        <mxCell id="RTz35jMpL1Sgpst_wqUK-5" value="size_t GetId()" style="text;align=center;verticalAlign=top;spacingLeft=4;spacingRight=4;overflow=hidden;rotatable=0;points=[[0,0.5],[1,0.5]];portConstraint=eastwest;" parent="zkfFHV4jXpPFQw0GAbJ--0" vertex="1">
          <mxGeometry y="164" width="310" height="26" as="geometry" />
        </mxCell>
        <mxCell id="RTz35jMpL1Sgpst_wqUK-6" value="friend void swap(IVertex&amp; lhs, IVertex&amp; rhs)" style="text;align=center;verticalAlign=top;spacingLeft=4;spacingRight=4;overflow=hidden;rotatable=0;points=[[0,0.5],[1,0.5]];portConstraint=eastwest;" parent="zkfFHV4jXpPFQw0GAbJ--0" vertex="1">
          <mxGeometry y="190" width="310" height="26" as="geometry" />
        </mxCell>
        <mxCell id="zkfFHV4jXpPFQw0GAbJ--13" value="Vertex" style="swimlane;fontStyle=0;align=center;verticalAlign=top;childLayout=stackLayout;horizontal=1;startSize=26;horizontalStack=0;resizeParent=1;resizeLast=0;collapsible=1;marginBottom=0;rounded=0;shadow=0;strokeWidth=1;" parent="WIyWlLk6GJQsqaUBKTNV-1" vertex="1">
          <mxGeometry x="190" y="546" width="160" height="112" as="geometry">
            <mxRectangle x="340" y="380" width="170" height="26" as="alternateBounds" />
          </mxGeometry>
        </mxCell>
        <mxCell id="zkfFHV4jXpPFQw0GAbJ--14" value="any Value" style="text;align=center;verticalAlign=top;spacingLeft=4;spacingRight=4;overflow=hidden;rotatable=0;points=[[0,0.5],[1,0.5]];portConstraint=eastwest;" parent="zkfFHV4jXpPFQw0GAbJ--13" vertex="1">
          <mxGeometry y="26" width="160" height="26" as="geometry" />
        </mxCell>
        <mxCell id="zkfFHV4jXpPFQw0GAbJ--15" value="" style="line;html=1;strokeWidth=1;align=center;verticalAlign=middle;spacingTop=-1;spacingLeft=3;spacingRight=3;rotatable=0;labelPosition=right;points=[];portConstraint=eastwest;" parent="zkfFHV4jXpPFQw0GAbJ--13" vertex="1">
          <mxGeometry y="52" width="160" height="8" as="geometry" />
        </mxCell>
        <mxCell id="RTz35jMpL1Sgpst_wqUK-7" value="any GetValue()" style="text;align=center;verticalAlign=top;spacingLeft=4;spacingRight=4;overflow=hidden;rotatable=0;points=[[0,0.5],[1,0.5]];portConstraint=eastwest;" parent="zkfFHV4jXpPFQw0GAbJ--13" vertex="1">
          <mxGeometry y="60" width="160" height="26" as="geometry" />
        </mxCell>
        <mxCell id="y_NacROut6FULt6kZBXN-2" value="void SetValue(T)" style="text;align=center;verticalAlign=top;spacingLeft=4;spacingRight=4;overflow=hidden;rotatable=0;points=[[0,0.5],[1,0.5]];portConstraint=eastwest;" parent="zkfFHV4jXpPFQw0GAbJ--13" vertex="1">
          <mxGeometry y="86" width="160" height="26" as="geometry" />
        </mxCell>
        <mxCell id="zkfFHV4jXpPFQw0GAbJ--16" value="" style="endArrow=block;endSize=10;endFill=0;shadow=0;strokeWidth=1;rounded=0;edgeStyle=elbowEdgeStyle;elbow=vertical;align=center;entryX=0.5;entryY=1;entryDx=0;entryDy=0;" parent="WIyWlLk6GJQsqaUBKTNV-1" source="zkfFHV4jXpPFQw0GAbJ--13" target="zkfFHV4jXpPFQw0GAbJ--0" edge="1">
          <mxGeometry width="160" relative="1" as="geometry">
            <mxPoint x="30" y="293" as="sourcePoint" />
            <mxPoint x="250" y="250" as="targetPoint" />
            <Array as="points">
              <mxPoint x="290" y="260" />
            </Array>
          </mxGeometry>
        </mxCell>
        <mxCell id="y_NacROut6FULt6kZBXN-3" value="IEdge" style="swimlane;fontStyle=2;align=center;verticalAlign=top;childLayout=stackLayout;horizontal=1;startSize=26;horizontalStack=0;resizeParent=1;resizeLast=0;collapsible=1;marginBottom=0;rounded=0;shadow=0;strokeWidth=1;" parent="WIyWlLk6GJQsqaUBKTNV-1" vertex="1">
          <mxGeometry x="650" y="80" width="160" height="90" as="geometry">
            <mxRectangle x="230" y="140" width="160" height="26" as="alternateBounds" />
          </mxGeometry>
        </mxCell>
        <mxCell id="RTz35jMpL1Sgpst_wqUK-20" value="weak_ptr&lt;IVertex&gt; end_" style="text;align=center;verticalAlign=top;spacingLeft=4;spacingRight=4;overflow=hidden;rotatable=0;points=[[0,0.5],[1,0.5]];portConstraint=eastwest;" parent="y_NacROut6FULt6kZBXN-3" vertex="1">
          <mxGeometry y="26" width="160" height="26" as="geometry" />
        </mxCell>
        <mxCell id="y_NacROut6FULt6kZBXN-5" value="" style="line;html=1;strokeWidth=1;align=center;verticalAlign=middle;spacingTop=-1;spacingLeft=3;spacingRight=3;rotatable=0;labelPosition=right;points=[];portConstraint=eastwest;" parent="y_NacROut6FULt6kZBXN-3" vertex="1">
          <mxGeometry y="52" width="160" height="8" as="geometry" />
        </mxCell>
        <mxCell id="y_NacROut6FULt6kZBXN-7" value="IVertex&amp; end()" style="text;align=center;verticalAlign=top;spacingLeft=4;spacingRight=4;overflow=hidden;rotatable=0;points=[[0,0.5],[1,0.5]];portConstraint=eastwest;" parent="y_NacROut6FULt6kZBXN-3" vertex="1">
          <mxGeometry y="60" width="160" height="26" as="geometry" />
        </mxCell>
        <mxCell id="y_NacROut6FULt6kZBXN-9" value="IWeightEdge" style="swimlane;fontStyle=2;align=center;verticalAlign=top;childLayout=stackLayout;horizontal=1;startSize=26;horizontalStack=0;resizeParent=1;resizeLast=0;collapsible=1;marginBottom=0;rounded=0;shadow=0;strokeWidth=1;" parent="WIyWlLk6GJQsqaUBKTNV-1" vertex="1">
          <mxGeometry x="480" y="248" width="160" height="112" as="geometry">
            <mxRectangle x="230" y="140" width="160" height="26" as="alternateBounds" />
          </mxGeometry>
        </mxCell>
        <mxCell id="RTz35jMpL1Sgpst_wqUK-22" value="any value_" style="text;align=center;verticalAlign=top;spacingLeft=4;spacingRight=4;overflow=hidden;rotatable=0;points=[[0,0.5],[1,0.5]];portConstraint=eastwest;" parent="y_NacROut6FULt6kZBXN-9" vertex="1">
          <mxGeometry y="26" width="160" height="22" as="geometry" />
        </mxCell>
        <mxCell id="y_NacROut6FULt6kZBXN-12" value="" style="line;html=1;strokeWidth=1;align=center;verticalAlign=middle;spacingTop=-1;spacingLeft=3;spacingRight=3;rotatable=0;labelPosition=right;points=[];portConstraint=eastwest;" parent="y_NacROut6FULt6kZBXN-9" vertex="1">
          <mxGeometry y="48" width="160" height="8" as="geometry" />
        </mxCell>
        <mxCell id="y_NacROut6FULt6kZBXN-20" value="void SetValue(any)" style="text;align=center;verticalAlign=top;spacingLeft=4;spacingRight=4;overflow=hidden;rotatable=0;points=[[0,0.5],[1,0.5]];portConstraint=eastwest;" parent="y_NacROut6FULt6kZBXN-9" vertex="1">
          <mxGeometry y="56" width="160" height="26" as="geometry" />
        </mxCell>
        <mxCell id="y_NacROut6FULt6kZBXN-19" value="anyÂ GetValue()" style="text;align=center;verticalAlign=top;spacingLeft=4;spacingRight=4;overflow=hidden;rotatable=0;points=[[0,0.5],[1,0.5]];portConstraint=eastwest;" parent="y_NacROut6FULt6kZBXN-9" vertex="1">
          <mxGeometry y="82" width="160" height="26" as="geometry" />
        </mxCell>
        <mxCell id="y_NacROut6FULt6kZBXN-17" value="" style="endArrow=block;endSize=10;endFill=0;shadow=0;strokeWidth=1;rounded=0;edgeStyle=elbowEdgeStyle;elbow=vertical;exitX=0.5;exitY=0;exitDx=0;exitDy=0;align=center;entryX=0.25;entryY=1;entryDx=0;entryDy=0;" parent="WIyWlLk6GJQsqaUBKTNV-1" source="y_NacROut6FULt6kZBXN-9" edge="1" target="y_NacROut6FULt6kZBXN-3">
          <mxGeometry width="160" relative="1" as="geometry">
            <mxPoint x="330" y="250" as="sourcePoint" />
            <mxPoint x="540" y="130" as="targetPoint" />
            <Array as="points">
              <mxPoint x="550" y="200" />
            </Array>
          </mxGeometry>
        </mxCell>
        <mxCell id="y_NacROut6FULt6kZBXN-21" value="IBidirectionalEdge" style="swimlane;fontStyle=2;align=center;verticalAlign=top;childLayout=stackLayout;horizontal=1;startSize=26;horizontalStack=0;resizeParent=1;resizeLast=0;collapsible=1;marginBottom=0;rounded=0;shadow=0;strokeWidth=1;" parent="WIyWlLk6GJQsqaUBKTNV-1" vertex="1">
          <mxGeometry x="700" y="240" width="160" height="86" as="geometry">
            <mxRectangle x="230" y="140" width="160" height="26" as="alternateBounds" />
          </mxGeometry>
        </mxCell>
        <mxCell id="RTz35jMpL1Sgpst_wqUK-21" value="weak_ptr&lt;IVertex&gt; start_" style="text;align=center;verticalAlign=top;spacingLeft=4;spacingRight=4;overflow=hidden;rotatable=0;points=[[0,0.5],[1,0.5]];portConstraint=eastwest;" parent="y_NacROut6FULt6kZBXN-21" vertex="1">
          <mxGeometry y="26" width="160" height="26" as="geometry" />
        </mxCell>
        <mxCell id="y_NacROut6FULt6kZBXN-24" value="" style="line;html=1;strokeWidth=1;align=center;verticalAlign=middle;spacingTop=-1;spacingLeft=3;spacingRight=3;rotatable=0;labelPosition=right;points=[];portConstraint=eastwest;" parent="y_NacROut6FULt6kZBXN-21" vertex="1">
          <mxGeometry y="52" width="160" height="8" as="geometry" />
        </mxCell>
        <mxCell id="y_NacROut6FULt6kZBXN-26" value="IVertex&amp; start()" style="text;align=center;verticalAlign=top;spacingLeft=4;spacingRight=4;overflow=hidden;rotatable=0;points=[[0,0.5],[1,0.5]];portConstraint=eastwest;" parent="y_NacROut6FULt6kZBXN-21" vertex="1">
          <mxGeometry y="60" width="160" height="26" as="geometry" />
        </mxCell>
        <mxCell id="y_NacROut6FULt6kZBXN-28" value="" style="endArrow=block;endSize=10;endFill=0;shadow=0;strokeWidth=1;rounded=0;edgeStyle=elbowEdgeStyle;elbow=vertical;exitX=0.5;exitY=0;exitDx=0;exitDy=0;align=center;entryX=0.5;entryY=1;entryDx=0;entryDy=0;" parent="WIyWlLk6GJQsqaUBKTNV-1" source="y_NacROut6FULt6kZBXN-21" edge="1" target="y_NacROut6FULt6kZBXN-3">
          <mxGeometry width="160" relative="1" as="geometry">
            <mxPoint x="570" y="250" as="sourcePoint" />
            <mxPoint x="560" y="130" as="targetPoint" />
            <Array as="points">
              <mxPoint x="760" y="200" />
            </Array>
          </mxGeometry>
        </mxCell>
        <mxCell id="y_NacROut6FULt6kZBXN-29" value="WeightBidirectionalEdge" style="swimlane;fontStyle=2;align=center;verticalAlign=top;childLayout=stackLayout;horizontal=1;startSize=26;horizontalStack=0;resizeParent=1;resizeLast=0;collapsible=1;marginBottom=0;rounded=0;shadow=0;strokeWidth=1;" parent="WIyWlLk6GJQsqaUBKTNV-1" vertex="1">
          <mxGeometry x="667" y="436" width="160" height="40" as="geometry">
            <mxRectangle x="230" y="140" width="160" height="26" as="alternateBounds" />
          </mxGeometry>
        </mxCell>
        <mxCell id="y_NacROut6FULt6kZBXN-32" value="" style="line;html=1;strokeWidth=1;align=center;verticalAlign=middle;spacingTop=-1;spacingLeft=3;spacingRight=3;rotatable=0;labelPosition=right;points=[];portConstraint=eastwest;" parent="y_NacROut6FULt6kZBXN-29" vertex="1">
          <mxGeometry y="26" width="160" height="8" as="geometry" />
        </mxCell>
        <mxCell id="y_NacROut6FULt6kZBXN-36" value="" style="endArrow=block;endSize=10;endFill=0;shadow=0;strokeWidth=1;rounded=0;edgeStyle=elbowEdgeStyle;elbow=vertical;entryX=0.5;entryY=1;entryDx=0;entryDy=0;align=center;exitX=0.5;exitY=0;exitDx=0;exitDy=0;" parent="WIyWlLk6GJQsqaUBKTNV-1" source="y_NacROut6FULt6kZBXN-29" target="y_NacROut6FULt6kZBXN-21" edge="1">
          <mxGeometry width="160" relative="1" as="geometry">
            <mxPoint x="850" y="340" as="sourcePoint" />
            <mxPoint x="710" y="540" as="targetPoint" />
            <Array as="points" />
          </mxGeometry>
        </mxCell>
        <mxCell id="y_NacROut6FULt6kZBXN-41" value="Edge" style="swimlane;fontStyle=2;align=center;verticalAlign=top;childLayout=stackLayout;horizontal=1;startSize=26;horizontalStack=0;resizeParent=1;resizeLast=0;collapsible=1;marginBottom=0;rounded=0;shadow=0;strokeWidth=1;" parent="WIyWlLk6GJQsqaUBKTNV-1" vertex="1">
          <mxGeometry x="920" y="256" width="160" height="40" as="geometry">
            <mxRectangle x="760" y="240" width="160" height="26" as="alternateBounds" />
          </mxGeometry>
        </mxCell>
        <mxCell id="y_NacROut6FULt6kZBXN-44" value="" style="line;html=1;strokeWidth=1;align=center;verticalAlign=middle;spacingTop=-1;spacingLeft=3;spacingRight=3;rotatable=0;labelPosition=right;points=[];portConstraint=eastwest;" parent="y_NacROut6FULt6kZBXN-41" vertex="1">
          <mxGeometry y="26" width="160" height="8" as="geometry" />
        </mxCell>
        <mxCell id="y_NacROut6FULt6kZBXN-46" value="" style="endArrow=block;endSize=10;endFill=0;shadow=0;strokeWidth=1;rounded=0;edgeStyle=elbowEdgeStyle;elbow=vertical;exitX=0.5;exitY=0;exitDx=0;exitDy=0;align=center;entryX=0.688;entryY=1.154;entryDx=0;entryDy=0;entryPerimeter=0;" parent="WIyWlLk6GJQsqaUBKTNV-1" source="y_NacROut6FULt6kZBXN-41" edge="1" target="y_NacROut6FULt6kZBXN-7">
          <mxGeometry width="160" relative="1" as="geometry">
            <mxPoint x="810" y="250" as="sourcePoint" />
            <mxPoint x="754" y="180" as="targetPoint" />
            <Array as="points" />
          </mxGeometry>
        </mxCell>
        <mxCell id="y_NacROut6FULt6kZBXN-47" value="WeightEdge" style="swimlane;fontStyle=2;align=center;verticalAlign=top;childLayout=stackLayout;horizontal=1;startSize=26;horizontalStack=0;resizeParent=1;resizeLast=0;collapsible=1;marginBottom=0;rounded=0;shadow=0;strokeWidth=1;" parent="WIyWlLk6GJQsqaUBKTNV-1" vertex="1">
          <mxGeometry x="440" y="440" width="160" height="40" as="geometry">
            <mxRectangle x="230" y="140" width="160" height="26" as="alternateBounds" />
          </mxGeometry>
        </mxCell>
        <mxCell id="y_NacROut6FULt6kZBXN-51" value="" style="line;html=1;strokeWidth=1;align=center;verticalAlign=middle;spacingTop=-1;spacingLeft=3;spacingRight=3;rotatable=0;labelPosition=right;points=[];portConstraint=eastwest;" parent="y_NacROut6FULt6kZBXN-47" vertex="1">
          <mxGeometry y="26" width="160" height="8" as="geometry" />
        </mxCell>
        <mxCell id="y_NacROut6FULt6kZBXN-55" value="" style="endArrow=block;endSize=10;endFill=0;shadow=0;strokeWidth=1;rounded=0;edgeStyle=elbowEdgeStyle;elbow=vertical;exitX=0.5;exitY=0;exitDx=0;exitDy=0;entryX=0.5;entryY=1;entryDx=0;entryDy=0;align=center;" parent="WIyWlLk6GJQsqaUBKTNV-1" source="y_NacROut6FULt6kZBXN-47" target="y_NacROut6FULt6kZBXN-9" edge="1">
          <mxGeometry width="160" relative="1" as="geometry">
            <mxPoint x="810" y="600" as="sourcePoint" />
            <mxPoint x="560" y="590" as="targetPoint" />
            <Array as="points" />
          </mxGeometry>
        </mxCell>
        <mxCell id="y_NacROut6FULt6kZBXN-56" value="BidirectionalEdge" style="swimlane;fontStyle=2;align=center;verticalAlign=top;childLayout=stackLayout;horizontal=1;startSize=26;horizontalStack=0;resizeParent=1;resizeLast=0;collapsible=1;marginBottom=0;rounded=0;shadow=0;strokeWidth=1;" parent="WIyWlLk6GJQsqaUBKTNV-1" vertex="1">
          <mxGeometry x="930" y="370" width="160" height="40" as="geometry">
            <mxRectangle x="230" y="140" width="160" height="26" as="alternateBounds" />
          </mxGeometry>
        </mxCell>
        <mxCell id="y_NacROut6FULt6kZBXN-59" value="" style="line;html=1;strokeWidth=1;align=center;verticalAlign=middle;spacingTop=-1;spacingLeft=3;spacingRight=3;rotatable=0;labelPosition=right;points=[];portConstraint=eastwest;" parent="y_NacROut6FULt6kZBXN-56" vertex="1">
          <mxGeometry y="26" width="160" height="8" as="geometry" />
        </mxCell>
        <mxCell id="y_NacROut6FULt6kZBXN-62" value="" style="endArrow=block;endSize=10;endFill=0;shadow=0;strokeWidth=1;rounded=0;edgeStyle=elbowEdgeStyle;elbow=vertical;exitX=0.5;exitY=0;exitDx=0;exitDy=0;entryX=0.617;entryY=1.017;entryDx=0;entryDy=0;entryPerimeter=0;align=center;" parent="WIyWlLk6GJQsqaUBKTNV-1" source="y_NacROut6FULt6kZBXN-56" target="y_NacROut6FULt6kZBXN-26" edge="1">
          <mxGeometry width="160" relative="1" as="geometry">
            <mxPoint x="810" y="600" as="sourcePoint" />
            <mxPoint x="820" y="460" as="targetPoint" />
            <Array as="points">
              <mxPoint x="930" y="350" />
            </Array>
          </mxGeometry>
        </mxCell>
        <mxCell id="y_NacROut6FULt6kZBXN-81" value="IGraph" style="swimlane;fontStyle=2;align=center;verticalAlign=top;childLayout=stackLayout;horizontal=1;startSize=26;horizontalStack=0;resizeParent=1;resizeLast=0;collapsible=1;marginBottom=0;rounded=0;shadow=0;strokeWidth=1;" parent="WIyWlLk6GJQsqaUBKTNV-1" vertex="1">
          <mxGeometry x="1100" y="220" width="355" height="240" as="geometry">
            <mxRectangle x="230" y="140" width="160" height="26" as="alternateBounds" />
          </mxGeometry>
        </mxCell>
        <mxCell id="RTz35jMpL1Sgpst_wqUK-24" value="unordered_set&lt;shared_ptr&lt;IVertex&gt;, VertexHasher&gt; VertexList_" style="text;align=center;verticalAlign=top;spacingLeft=4;spacingRight=4;overflow=hidden;rotatable=0;points=[[0,0.5],[1,0.5]];portConstraint=eastwest;" parent="y_NacROut6FULt6kZBXN-81" vertex="1">
          <mxGeometry y="26" width="355" height="26" as="geometry" />
        </mxCell>
        <mxCell id="y_NacROut6FULt6kZBXN-83" value="" style="line;html=1;strokeWidth=1;align=center;verticalAlign=middle;spacingTop=-1;spacingLeft=3;spacingRight=3;rotatable=0;labelPosition=right;points=[];portConstraint=eastwest;" parent="y_NacROut6FULt6kZBXN-81" vertex="1">
          <mxGeometry y="52" width="355" height="8" as="geometry" />
        </mxCell>
        <mxCell id="y_NacROut6FULt6kZBXN-84" value="size_t VertexCount()" style="text;align=center;verticalAlign=top;spacingLeft=4;spacingRight=4;overflow=hidden;rotatable=0;points=[[0,0.5],[1,0.5]];portConstraint=eastwest;" parent="y_NacROut6FULt6kZBXN-81" vertex="1">
          <mxGeometry y="60" width="355" height="26" as="geometry" />
        </mxCell>
        <mxCell id="zSvoL9kqI2ZiCNAZ61pA-5" value="size_t EdgeCount()" style="text;align=center;verticalAlign=top;spacingLeft=4;spacingRight=4;overflow=hidden;rotatable=0;points=[[0,0.5],[1,0.5]];portConstraint=eastwest;" parent="y_NacROut6FULt6kZBXN-81" vertex="1">
          <mxGeometry y="86" width="355" height="26" as="geometry" />
        </mxCell>
        <mxCell id="y_NacROut6FULt6kZBXN-85" value="void AddEdge(const IVertex&amp;, const IVertex&amp;)" style="text;align=center;verticalAlign=top;spacingLeft=4;spacingRight=4;overflow=hidden;rotatable=0;points=[[0,0.5],[1,0.5]];portConstraint=eastwest;" parent="y_NacROut6FULt6kZBXN-81" vertex="1">
          <mxGeometry y="112" width="355" height="26" as="geometry" />
        </mxCell>
        <mxCell id="y_NacROut6FULt6kZBXN-86" value="void AddEdge(const IEdge&amp;)" style="text;align=center;verticalAlign=top;spacingLeft=4;spacingRight=4;overflow=hidden;rotatable=0;points=[[0,0.5],[1,0.5]];portConstraint=eastwest;" parent="y_NacROut6FULt6kZBXN-81" vertex="1">
          <mxGeometry y="138" width="355" height="26" as="geometry" />
        </mxCell>
        <mxCell id="y_NacROut6FULt6kZBXN-87" value="void RemoveEdge(const IEdge&amp;)" style="text;align=center;verticalAlign=top;spacingLeft=4;spacingRight=4;overflow=hidden;rotatable=0;points=[[0,0.5],[1,0.5]];portConstraint=eastwest;" parent="y_NacROut6FULt6kZBXN-81" vertex="1">
          <mxGeometry y="164" width="355" height="26" as="geometry" />
        </mxCell>
        <mxCell id="RTz35jMpL1Sgpst_wqUK-25" value="unordered_set&lt;shared_ptr&lt;IVertex&gt;, VertexHasher&gt;&amp;&#xa;Â  Â  GetVertexes()" style="text;align=center;verticalAlign=top;spacingLeft=4;spacingRight=4;overflow=hidden;rotatable=0;points=[[0,0.5],[1,0.5]];portConstraint=eastwest;" parent="y_NacROut6FULt6kZBXN-81" vertex="1">
          <mxGeometry y="190" width="355" height="40" as="geometry" />
        </mxCell>
        <mxCell id="l4pTJNft4cLnouz2GSbL-0" value="EmptyVertex" style="swimlane;fontStyle=0;align=center;verticalAlign=top;childLayout=stackLayout;horizontal=1;startSize=26;horizontalStack=0;resizeParent=1;resizeLast=0;collapsible=1;marginBottom=0;rounded=0;shadow=0;strokeWidth=1;" parent="WIyWlLk6GJQsqaUBKTNV-1" vertex="1">
          <mxGeometry x="320" y="380" width="160" height="40" as="geometry">
            <mxRectangle x="340" y="380" width="170" height="26" as="alternateBounds" />
          </mxGeometry>
        </mxCell>
        <mxCell id="l4pTJNft4cLnouz2GSbL-2" value="" style="line;html=1;strokeWidth=1;align=center;verticalAlign=middle;spacingTop=-1;spacingLeft=3;spacingRight=3;rotatable=0;labelPosition=right;points=[];portConstraint=eastwest;" parent="l4pTJNft4cLnouz2GSbL-0" vertex="1">
          <mxGeometry y="26" width="160" height="14" as="geometry" />
        </mxCell>
        <mxCell id="l4pTJNft4cLnouz2GSbL-6" value="" style="endArrow=block;endSize=10;endFill=0;shadow=0;strokeWidth=1;rounded=0;edgeStyle=elbowEdgeStyle;elbow=vertical;exitX=0.5;exitY=0;exitDx=0;exitDy=0;align=center;entryX=0.75;entryY=1;entryDx=0;entryDy=0;" parent="WIyWlLk6GJQsqaUBKTNV-1" source="l4pTJNft4cLnouz2GSbL-0" target="zkfFHV4jXpPFQw0GAbJ--0" edge="1">
          <mxGeometry width="160" relative="1" as="geometry">
            <mxPoint x="130" y="250" as="sourcePoint" />
            <mxPoint x="190" y="280" as="targetPoint" />
            <Array as="points">
              <mxPoint x="250" y="290" />
            </Array>
          </mxGeometry>
        </mxCell>
        <mxCell id="l4pTJNft4cLnouz2GSbL-7" value="OrientedGraph" style="swimlane;fontStyle=2;align=center;verticalAlign=top;childLayout=stackLayout;horizontal=1;startSize=26;horizontalStack=0;resizeParent=1;resizeLast=0;collapsible=1;marginBottom=0;rounded=0;shadow=0;strokeWidth=1;" parent="WIyWlLk6GJQsqaUBKTNV-1" vertex="1">
          <mxGeometry x="1070" y="590" width="270" height="68" as="geometry">
            <mxRectangle x="230" y="140" width="160" height="26" as="alternateBounds" />
          </mxGeometry>
        </mxCell>
        <mxCell id="l4pTJNft4cLnouz2GSbL-14" value="vector&lt;shared_ptr&lt;IEdge&gt;&gt; EdgeList_" style="text;align=center;verticalAlign=top;spacingLeft=4;spacingRight=4;overflow=hidden;rotatable=0;points=[[0,0.5],[1,0.5]];portConstraint=eastwest;" parent="l4pTJNft4cLnouz2GSbL-7" vertex="1">
          <mxGeometry y="26" width="270" height="26" as="geometry" />
        </mxCell>
        <mxCell id="l4pTJNft4cLnouz2GSbL-8" value="" style="line;html=1;strokeWidth=1;align=center;verticalAlign=middle;spacingTop=-1;spacingLeft=3;spacingRight=3;rotatable=0;labelPosition=right;points=[];portConstraint=eastwest;" parent="l4pTJNft4cLnouz2GSbL-7" vertex="1">
          <mxGeometry y="52" width="270" height="8" as="geometry" />
        </mxCell>
        <mxCell id="l4pTJNft4cLnouz2GSbL-13" value="" style="endArrow=block;endSize=10;endFill=0;shadow=0;strokeWidth=1;rounded=0;edgeStyle=elbowEdgeStyle;elbow=vertical;exitX=0.5;exitY=0;exitDx=0;exitDy=0;align=center;entryX=0.25;entryY=1;entryDx=0;entryDy=0;" parent="WIyWlLk6GJQsqaUBKTNV-1" source="l4pTJNft4cLnouz2GSbL-7" edge="1" target="y_NacROut6FULt6kZBXN-81">
          <mxGeometry width="160" relative="1" as="geometry">
            <mxPoint x="995" y="450" as="sourcePoint" />
            <mxPoint x="1280" y="260" as="targetPoint" />
            <Array as="points">
              <mxPoint x="1230" y="560" />
            </Array>
          </mxGeometry>
        </mxCell>
        <mxCell id="l4pTJNft4cLnouz2GSbL-15" value="VertexHasher" style="swimlane;fontStyle=2;align=center;verticalAlign=top;childLayout=stackLayout;horizontal=1;startSize=26;horizontalStack=0;resizeParent=1;resizeLast=0;collapsible=1;marginBottom=0;rounded=0;shadow=0;strokeWidth=1;" parent="WIyWlLk6GJQsqaUBKTNV-1" vertex="1">
          <mxGeometry x="840" y="760" width="290" height="60" as="geometry">
            <mxRectangle x="230" y="140" width="160" height="26" as="alternateBounds" />
          </mxGeometry>
        </mxCell>
        <mxCell id="l4pTJNft4cLnouz2GSbL-17" value="" style="line;html=1;strokeWidth=1;align=center;verticalAlign=middle;spacingTop=-1;spacingLeft=3;spacingRight=3;rotatable=0;labelPosition=right;points=[];portConstraint=eastwest;" parent="l4pTJNft4cLnouz2GSbL-15" vertex="1">
          <mxGeometry y="26" width="290" height="8" as="geometry" />
        </mxCell>
        <mxCell id="l4pTJNft4cLnouz2GSbL-18" value="size_t operator()(const shared_ptr&lt;IVertex&gt;&amp; vertex)" style="text;align=center;verticalAlign=top;spacingLeft=4;spacingRight=4;overflow=hidden;rotatable=0;points=[[0,0.5],[1,0.5]];portConstraint=eastwest;" parent="l4pTJNft4cLnouz2GSbL-15" vertex="1">
          <mxGeometry y="34" width="290" height="26" as="geometry" />
        </mxCell>
        <mxCell id="zSvoL9kqI2ZiCNAZ61pA-0" value="BidirectionalGraph" style="swimlane;fontStyle=2;align=center;verticalAlign=top;childLayout=stackLayout;horizontal=1;startSize=26;horizontalStack=0;resizeParent=1;resizeLast=0;collapsible=1;marginBottom=0;rounded=0;shadow=0;strokeWidth=1;" parent="WIyWlLk6GJQsqaUBKTNV-1" vertex="1">
          <mxGeometry x="1240" y="505" width="280" height="60" as="geometry">
            <mxRectangle x="230" y="140" width="160" height="26" as="alternateBounds" />
          </mxGeometry>
        </mxCell>
        <mxCell id="zSvoL9kqI2ZiCNAZ61pA-1" value="vector&lt;shared_ptr&lt;IBidirectionalEdge&gt;&gt; EdgeList_" style="text;align=center;verticalAlign=top;spacingLeft=4;spacingRight=4;overflow=hidden;rotatable=0;points=[[0,0.5],[1,0.5]];portConstraint=eastwest;" parent="zSvoL9kqI2ZiCNAZ61pA-0" vertex="1">
          <mxGeometry y="26" width="280" height="26" as="geometry" />
        </mxCell>
        <mxCell id="zSvoL9kqI2ZiCNAZ61pA-2" value="" style="line;html=1;strokeWidth=1;align=center;verticalAlign=middle;spacingTop=-1;spacingLeft=3;spacingRight=3;rotatable=0;labelPosition=right;points=[];portConstraint=eastwest;" parent="zSvoL9kqI2ZiCNAZ61pA-0" vertex="1">
          <mxGeometry y="52" width="280" height="8" as="geometry" />
        </mxCell>
        <mxCell id="zSvoL9kqI2ZiCNAZ61pA-4" value="" style="endArrow=block;endSize=10;endFill=0;shadow=0;strokeWidth=1;rounded=0;edgeStyle=elbowEdgeStyle;elbow=vertical;exitX=0.5;exitY=0;exitDx=0;exitDy=0;align=center;entryX=0.75;entryY=1;entryDx=0;entryDy=0;" parent="WIyWlLk6GJQsqaUBKTNV-1" source="zSvoL9kqI2ZiCNAZ61pA-0" target="y_NacROut6FULt6kZBXN-81" edge="1">
          <mxGeometry width="160" relative="1" as="geometry">
            <mxPoint x="1285" y="230" as="sourcePoint" />
            <mxPoint x="1340" y="260" as="targetPoint" />
            <Array as="points" />
          </mxGeometry>
        </mxCell>
        <mxCell id="CKWlNAc46PFvkFJrsksR-8" value="DijkstraClassic" style="swimlane;fontStyle=2;align=center;verticalAlign=top;childLayout=stackLayout;horizontal=1;startSize=26;horizontalStack=0;resizeParent=1;resizeLast=0;collapsible=1;marginBottom=0;rounded=0;shadow=0;strokeWidth=1;" parent="WIyWlLk6GJQsqaUBKTNV-1" vertex="1">
          <mxGeometry x="370" y="530" width="410" height="204" as="geometry">
            <mxRectangle x="230" y="140" width="160" height="26" as="alternateBounds" />
          </mxGeometry>
        </mxCell>
        <mxCell id="CKWlNAc46PFvkFJrsksR-9" value="any MaxValue_" style="text;align=center;verticalAlign=top;spacingLeft=4;spacingRight=4;overflow=hidden;rotatable=0;points=[[0,0.5],[1,0.5]];portConstraint=eastwest;" parent="CKWlNAc46PFvkFJrsksR-8" vertex="1">
          <mxGeometry y="26" width="410" height="26" as="geometry" />
        </mxCell>
        <mxCell id="RTz35jMpL1Sgpst_wqUK-8" value="any MinValue_" style="text;align=center;verticalAlign=top;spacingLeft=4;spacingRight=4;overflow=hidden;rotatable=0;points=[[0,0.5],[1,0.5]];portConstraint=eastwest;" parent="CKWlNAc46PFvkFJrsksR-8" vertex="1">
          <mxGeometry y="52" width="410" height="26" as="geometry" />
        </mxCell>
        <mxCell id="RTz35jMpL1Sgpst_wqUK-9" value="unordered_map&lt;shared_ptr&lt;IVertex&gt;, any, VertexHasher&gt; Distances_" style="text;align=center;verticalAlign=top;spacingLeft=4;spacingRight=4;overflow=hidden;rotatable=0;points=[[0,0.5],[1,0.5]];portConstraint=eastwest;" parent="CKWlNAc46PFvkFJrsksR-8" vertex="1">
          <mxGeometry y="78" width="410" height="26" as="geometry" />
        </mxCell>
        <mxCell id="RTz35jMpL1Sgpst_wqUK-10" value="function&lt;bool(const any&amp;, const any&amp;)&gt; less" style="text;align=center;verticalAlign=top;spacingLeft=4;spacingRight=4;overflow=hidden;rotatable=0;points=[[0,0.5],[1,0.5]];portConstraint=eastwest;" parent="CKWlNAc46PFvkFJrsksR-8" vertex="1">
          <mxGeometry y="104" width="410" height="26" as="geometry" />
        </mxCell>
        <mxCell id="RTz35jMpL1Sgpst_wqUK-11" value="function&lt;sum(const any&amp;, const any&amp;)&gt; sum" style="text;align=center;verticalAlign=top;spacingLeft=4;spacingRight=4;overflow=hidden;rotatable=0;points=[[0,0.5],[1,0.5]];portConstraint=eastwest;" parent="CKWlNAc46PFvkFJrsksR-8" vertex="1">
          <mxGeometry y="130" width="410" height="26" as="geometry" />
        </mxCell>
        <mxCell id="CKWlNAc46PFvkFJrsksR-10" value="" style="line;html=1;strokeWidth=1;align=center;verticalAlign=middle;spacingTop=-1;spacingLeft=3;spacingRight=3;rotatable=0;labelPosition=right;points=[];portConstraint=eastwest;" parent="CKWlNAc46PFvkFJrsksR-8" vertex="1">
          <mxGeometry y="156" width="410" height="8" as="geometry" />
        </mxCell>
        <mxCell id="CKWlNAc46PFvkFJrsksR-11" value="unordered_map&lt;shared_ptr&lt;IVertex&gt;, any, VertexHasher&gt;&amp; GetDistance(&#xa;Â  Â  Â  Â  const BidirectionalGraph&amp;, const IVertex&amp;)" style="text;align=center;verticalAlign=top;spacingLeft=4;spacingRight=4;overflow=hidden;rotatable=0;points=[[0,0.5],[1,0.5]];portConstraint=eastwest;" parent="CKWlNAc46PFvkFJrsksR-8" vertex="1">
          <mxGeometry y="164" width="410" height="40" as="geometry" />
        </mxCell>
        <mxCell id="CKWlNAc46PFvkFJrsksR-22" value="DijkstraSparse" style="swimlane;fontStyle=2;align=center;verticalAlign=top;childLayout=stackLayout;horizontal=1;startSize=26;horizontalStack=0;resizeParent=1;resizeLast=0;collapsible=1;marginBottom=0;rounded=0;shadow=0;strokeWidth=1;" parent="WIyWlLk6GJQsqaUBKTNV-1" vertex="1">
          <mxGeometry x="385" y="780" width="380" height="34" as="geometry">
            <mxRectangle x="230" y="140" width="160" height="26" as="alternateBounds" />
          </mxGeometry>
        </mxCell>
        <mxCell id="CKWlNAc46PFvkFJrsksR-24" value="" style="line;html=1;strokeWidth=1;align=center;verticalAlign=middle;spacingTop=-1;spacingLeft=3;spacingRight=3;rotatable=0;labelPosition=right;points=[];portConstraint=eastwest;" parent="CKWlNAc46PFvkFJrsksR-22" vertex="1">
          <mxGeometry y="26" width="380" height="8" as="geometry" />
        </mxCell>
        <mxCell id="CKWlNAc46PFvkFJrsksR-27" value="" style="endArrow=block;endSize=10;endFill=0;shadow=0;strokeWidth=1;rounded=0;edgeStyle=elbowEdgeStyle;elbow=vertical;exitX=0.5;exitY=0;exitDx=0;exitDy=0;align=center;entryX=0.5;entryY=1;entryDx=0;entryDy=0;" parent="WIyWlLk6GJQsqaUBKTNV-1" source="CKWlNAc46PFvkFJrsksR-22" target="CKWlNAc46PFvkFJrsksR-8" edge="1">
          <mxGeometry width="160" relative="1" as="geometry">
            <mxPoint x="790" y="711" as="sourcePoint" />
            <mxPoint x="270" y="1031" as="targetPoint" />
            <Array as="points" />
          </mxGeometry>
        </mxCell>
        <mxCell id="CKWlNAc46PFvkFJrsksR-28" value="SpanningKruskal" style="swimlane;fontStyle=2;align=center;verticalAlign=top;childLayout=stackLayout;horizontal=1;startSize=26;horizontalStack=0;resizeParent=1;resizeLast=0;collapsible=1;marginBottom=0;rounded=0;shadow=0;strokeWidth=1;" parent="WIyWlLk6GJQsqaUBKTNV-1" vertex="1">
          <mxGeometry x="850" y="490" width="200" height="90" as="geometry">
            <mxRectangle x="230" y="140" width="160" height="26" as="alternateBounds" />
          </mxGeometry>
        </mxCell>
        <mxCell id="CKWlNAc46PFvkFJrsksR-29" value="IGraph tree" style="text;align=center;verticalAlign=top;spacingLeft=4;spacingRight=4;overflow=hidden;rotatable=0;points=[[0,0.5],[1,0.5]];portConstraint=eastwest;" parent="CKWlNAc46PFvkFJrsksR-28" vertex="1">
          <mxGeometry y="26" width="200" height="26" as="geometry" />
        </mxCell>
        <mxCell id="CKWlNAc46PFvkFJrsksR-30" value="" style="line;html=1;strokeWidth=1;align=center;verticalAlign=middle;spacingTop=-1;spacingLeft=3;spacingRight=3;rotatable=0;labelPosition=right;points=[];portConstraint=eastwest;" parent="CKWlNAc46PFvkFJrsksR-28" vertex="1">
          <mxGeometry y="52" width="200" height="8" as="geometry" />
        </mxCell>
        <mxCell id="CKWlNAc46PFvkFJrsksR-31" value="IGraph&amp; GetTree(IGraph&amp;)" style="text;align=center;verticalAlign=top;spacingLeft=4;spacingRight=4;overflow=hidden;rotatable=0;points=[[0,0.5],[1,0.5]];portConstraint=eastwest;" parent="CKWlNAc46PFvkFJrsksR-28" vertex="1">
          <mxGeometry y="60" width="200" height="26" as="geometry" />
        </mxCell>
        <mxCell id="CKWlNAc46PFvkFJrsksR-32" value="SpanningKruskalDSU" style="swimlane;fontStyle=2;align=center;verticalAlign=top;childLayout=stackLayout;horizontal=1;startSize=26;horizontalStack=0;resizeParent=1;resizeLast=0;collapsible=1;marginBottom=0;rounded=0;shadow=0;strokeWidth=1;" parent="WIyWlLk6GJQsqaUBKTNV-1" vertex="1">
          <mxGeometry x="850" y="644" width="200" height="90" as="geometry">
            <mxRectangle x="230" y="140" width="160" height="26" as="alternateBounds" />
          </mxGeometry>
        </mxCell>
        <mxCell id="CKWlNAc46PFvkFJrsksR-33" value="vector&lt;size_t&gt; ranks" style="text;align=center;verticalAlign=top;spacingLeft=4;spacingRight=4;overflow=hidden;rotatable=0;points=[[0,0.5],[1,0.5]];portConstraint=eastwest;" parent="CKWlNAc46PFvkFJrsksR-32" vertex="1">
          <mxGeometry y="26" width="200" height="26" as="geometry" />
        </mxCell>
        <mxCell id="CKWlNAc46PFvkFJrsksR-37" value="vector&lt;size_t&gt; parents" style="text;align=center;verticalAlign=top;spacingLeft=4;spacingRight=4;overflow=hidden;rotatable=0;points=[[0,0.5],[1,0.5]];portConstraint=eastwest;" parent="CKWlNAc46PFvkFJrsksR-32" vertex="1">
          <mxGeometry y="52" width="200" height="26" as="geometry" />
        </mxCell>
        <mxCell id="CKWlNAc46PFvkFJrsksR-34" value="" style="line;html=1;strokeWidth=1;align=center;verticalAlign=middle;spacingTop=-1;spacingLeft=3;spacingRight=3;rotatable=0;labelPosition=right;points=[];portConstraint=eastwest;" parent="CKWlNAc46PFvkFJrsksR-32" vertex="1">
          <mxGeometry y="78" width="200" height="8" as="geometry" />
        </mxCell>
        <mxCell id="CKWlNAc46PFvkFJrsksR-36" value="" style="endArrow=block;endSize=10;endFill=0;shadow=0;strokeWidth=1;rounded=0;edgeStyle=elbowEdgeStyle;elbow=vertical;exitX=0.5;exitY=0;exitDx=0;exitDy=0;entryX=0.5;entryY=1;entryDx=0;entryDy=0;align=center;" parent="WIyWlLk6GJQsqaUBKTNV-1" source="CKWlNAc46PFvkFJrsksR-32" target="CKWlNAc46PFvkFJrsksR-28" edge="1">
          <mxGeometry width="160" relative="1" as="geometry">
            <mxPoint x="739.9999999999998" y="500" as="sourcePoint" />
            <mxPoint x="739.9999999999998" y="445" as="targetPoint" />
            <Array as="points" />
          </mxGeometry>
        </mxCell>
        <mxCell id="t4FHlT4l9qhNhijTOQyq-0" value="" style="endArrow=block;endSize=10;endFill=0;shadow=0;strokeWidth=1;rounded=0;edgeStyle=elbowEdgeStyle;elbow=vertical;exitX=0.421;exitY=-0.01;exitDx=0;exitDy=0;align=center;exitPerimeter=0;entryX=0.75;entryY=1;entryDx=0;entryDy=0;" parent="WIyWlLk6GJQsqaUBKTNV-1" source="y_NacROut6FULt6kZBXN-29" target="y_NacROut6FULt6kZBXN-9" edge="1">
          <mxGeometry width="160" relative="1" as="geometry">
            <mxPoint x="790" y="525" as="sourcePoint" />
            <mxPoint x="570" y="390" as="targetPoint" />
            <Array as="points">
              <mxPoint x="630" y="400" />
            </Array>
          </mxGeometry>
        </mxCell>
      </root>
    </mxGraphModel>
  </diagram>
  <diagram id="hJGfyuY0uG8NihbMk6pf" name="UseCase">
    <mxGraphModel dx="2074" dy="1204" grid="1" gridSize="10" guides="1" tooltips="1" connect="1" arrows="1" fold="1" page="1" pageScale="1" pageWidth="1654" pageHeight="1169" math="0" shadow="0">
      <root>
        <mxCell id="0" />
        <mxCell id="1" parent="0" />
        <mxCell id="jJw-uhwqgEKn03MKXg83-3" style="edgeStyle=orthogonalEdgeStyle;rounded=0;orthogonalLoop=1;jettySize=auto;html=1;exitX=0.5;exitY=1;exitDx=0;exitDy=0;entryX=0.5;entryY=0;entryDx=0;entryDy=0;endArrow=none;endFill=0;" parent="1" source="jJw-uhwqgEKn03MKXg83-1" target="jJw-uhwqgEKn03MKXg83-2" edge="1">
          <mxGeometry relative="1" as="geometry" />
        </mxCell>
        <mxCell id="jJw-uhwqgEKn03MKXg83-1" value="ÐÐ°ÑÐ°Ð»Ð¾ ÑÐ°Ð·ÑÐ°Ð±Ð¾ÑÐºÐ¸ Ð¿ÑÐ¾Ð³ÑÐ°Ð¼Ð¼Ñ" style="rounded=1;whiteSpace=wrap;html=1;spacing=2;arcSize=50;" parent="1" vertex="1">
          <mxGeometry x="680" y="120" width="120" height="60" as="geometry" />
        </mxCell>
        <mxCell id="jJw-uhwqgEKn03MKXg83-2" value="ÐÐ¾Ð´ÐºÐ»ÑÑÐµÐ½Ð¸Ðµ header ÑÐ°Ð¹Ð»Ð¾Ð² Ñ Ð¾Ð±ÑÑÐ²Ð»ÐµÐ½Ð¸ÐµÐ¼" style="rounded=0;whiteSpace=wrap;html=1;spacing=4;" parent="1" vertex="1">
          <mxGeometry x="680" y="240" width="120" height="60" as="geometry" />
        </mxCell>
        <mxCell id="jJw-uhwqgEKn03MKXg83-4" value="Ð Ð°Ð·ÑÐ°Ð±Ð¾ÑÐºÐ° Ð¿ÑÐ¾Ð³ÑÐ°Ð¼Ð¼Ñ" style="rounded=0;whiteSpace=wrap;html=1;spacing=4;" parent="1" vertex="1">
          <mxGeometry x="680" y="370" width="120" height="60" as="geometry" />
        </mxCell>
        <mxCell id="jJw-uhwqgEKn03MKXg83-5" style="edgeStyle=orthogonalEdgeStyle;rounded=0;orthogonalLoop=1;jettySize=auto;html=1;exitX=0.5;exitY=1;exitDx=0;exitDy=0;entryX=0.5;entryY=0;entryDx=0;entryDy=0;endArrow=none;endFill=0;" parent="1" source="jJw-uhwqgEKn03MKXg83-2" target="jJw-uhwqgEKn03MKXg83-4" edge="1">
          <mxGeometry relative="1" as="geometry">
            <mxPoint x="750" y="190" as="sourcePoint" />
            <mxPoint x="750" y="250" as="targetPoint" />
          </mxGeometry>
        </mxCell>
        <mxCell id="jJw-uhwqgEKn03MKXg83-6" value="Ð¡Ð±Ð¾ÑÐºÐ° Ð¿ÑÐ¾Ð³ÑÐ°Ð¼Ð¼Ñ Ð¸ Ð»Ð¸Ð½ÐºÐ¾Ð²ÐºÐ° Ð±Ð¸Ð±Ð»Ð¸Ð¾ÑÐµÐºÐ¸" style="rounded=0;whiteSpace=wrap;html=1;spacing=4;" parent="1" vertex="1">
          <mxGeometry x="680" y="500" width="120" height="60" as="geometry" />
        </mxCell>
        <mxCell id="jJw-uhwqgEKn03MKXg83-7" style="edgeStyle=orthogonalEdgeStyle;rounded=0;orthogonalLoop=1;jettySize=auto;html=1;entryX=0.5;entryY=0;entryDx=0;entryDy=0;endArrow=none;endFill=0;exitX=0.5;exitY=1;exitDx=0;exitDy=0;" parent="1" source="jJw-uhwqgEKn03MKXg83-4" target="jJw-uhwqgEKn03MKXg83-6" edge="1">
          <mxGeometry relative="1" as="geometry">
            <mxPoint x="740" y="440" as="sourcePoint" />
            <mxPoint x="760" y="260" as="targetPoint" />
          </mxGeometry>
        </mxCell>
        <mxCell id="jJw-uhwqgEKn03MKXg83-9" value="ÐÐ¾ÑÐ¾Ð²Ð°Ñ Ð¿ÑÐ¾Ð³ÑÐ°Ð¼Ð¼Ð° Ñ Ð¸ÑÐ¿Ð¾Ð»ÑÐ·Ð¾Ð²Ð°Ð½Ð¸ÐµÐ¼ Ð±Ð¸Ð±Ð»Ð¸Ð¾ÑÐµÐºÐ¸" style="rounded=1;whiteSpace=wrap;html=1;spacing=14;arcSize=50;" parent="1" vertex="1">
          <mxGeometry x="680" y="620" width="120" height="60" as="geometry" />
        </mxCell>
        <mxCell id="jJw-uhwqgEKn03MKXg83-10" style="edgeStyle=orthogonalEdgeStyle;rounded=0;orthogonalLoop=1;jettySize=auto;html=1;entryX=0.5;entryY=0;entryDx=0;entryDy=0;endArrow=none;endFill=0;exitX=0.5;exitY=1;exitDx=0;exitDy=0;" parent="1" source="jJw-uhwqgEKn03MKXg83-6" target="jJw-uhwqgEKn03MKXg83-9" edge="1">
          <mxGeometry relative="1" as="geometry">
            <mxPoint x="750" y="440" as="sourcePoint" />
            <mxPoint x="750" y="510" as="targetPoint" />
          </mxGeometry>
        </mxCell>
      </root>
    </mxGraphModel>
  </diagram>
</mxfile>
